<svg xmlns="http://www.w3.org/2000/svg" fill="none" viewBox="0 0 332 332" height="332" width="332">
<path fill="#141413" d="M240.334 168.521C237.969 168.466 235.423 168.12 233.026 168.03C232.58 168.013 232.002 168.324 231.524 168.23C231.181 168.162 229.647 167.132 229.408 166.85C229.304 166.728 228.497 165.103 228.397 164.864C226.568 160.367 228.752 153.469 229.24 148.536C229.689 144.004 229.776 139.361 229.931 134.812C230.009 132.506 230.448 130.613 230.076 128.174C230.002 127.682 229.295 126.49 228.8 126.526C228.548 126.545 228.229 126.784 227.75 126.82C227.036 126.872 226.355 126.623 225.815 126.645C224.672 126.697 221.887 127.744 220.475 127.996C218.647 128.322 216.566 128.594 214.708 128.742C211.92 128.968 210.169 128.364 207.614 128.27C207.029 128.248 206.451 128.529 206.118 128.519C205.55 128.503 204.758 128.048 204.138 128.035C202.154 127.993 200.523 128.823 198.155 128.487C196.901 128.309 191.703 126.881 190.731 126.316C189.409 125.547 189.994 125.524 189.523 124.529C189.387 124.245 189.028 124.129 188.854 123.615C188.405 122.287 188.56 121.283 189.08 120.029C189.216 119.7 189.594 119.448 189.61 119.167C189.629 118.824 189.141 117.677 189.125 117.044C189.09 115.768 189.716 114.379 189.694 113.171C189.642 110.295 190.023 109.795 190.482 107.175C191.067 103.818 190.55 100.222 190.563 96.8366C190.566 95.9998 190.915 94.7302 190.863 93.9936C190.831 93.5252 190.495 93.2086 190.488 92.7628C190.482 92.136 190.66 91.225 190.666 90.301C190.673 89.1477 190.757 88.0105 190.676 86.8604C190.107 86.9509 189.484 86.7377 188.941 86.799C188.398 86.8604 187.959 87.2223 187.597 87.2287C187.151 87.2384 186.78 86.8475 186.189 86.8443C185.268 86.841 184.331 87.0381 183.552 87.0381C181.721 87.0381 180.189 86.4501 178.535 86.4081C176.949 86.3694 174.558 86.9735 173.069 86.5729C172.084 86.308 171.486 86.1788 170.468 86.0398C169.528 85.9106 168.465 85.8783 167.522 85.8525C161.765 85.6909 155.808 84.683 150.145 85.8589C147.134 86.4824 142.692 86.6407 139.538 86.6924C138.799 86.7054 135.6 86.3274 135.255 86.7312C135.125 86.8798 134.99 90.2946 135.032 90.6532C135.1 91.2088 135.442 91.5997 135.523 92.0972C135.688 93.0955 136.075 95.9546 136.043 96.843C136.03 97.2049 135.565 97.5699 135.581 98.0448C135.591 98.3485 135.875 98.6037 135.91 98.9397C135.991 99.6924 135.594 100.568 135.581 101.227C135.571 101.844 135.93 102.745 135.92 103.327C135.901 104.871 135.442 107.194 135.403 108.793C135.365 110.486 136.033 112.117 135.856 114.382C135.707 116.265 135.888 117.47 135.933 119.325C135.975 120.979 136.04 122.588 135.697 124.219C135.174 126.713 134.34 128.962 131.423 129.101C129.656 129.185 127.692 128.655 125.615 128.752C123.537 128.849 121.638 129.498 119.644 129.614C114.776 129.899 110.537 129.708 105.707 129.139C104.231 128.965 102.39 129.475 100.878 129.101C100.736 129.359 101.165 131.805 101.194 132.357C101.427 136.838 102.147 141.174 102.251 145.732C102.289 147.376 102.099 149.231 102.134 150.83C102.241 155.443 103.016 158.005 101.336 162.557C101.065 163.294 100.761 164.379 100.06 164.809C99.5402 165.129 98.5161 164.757 97.9572 164.964C97.3983 165.171 97.0397 165.923 95.8088 166.188C90.9823 167.222 85.0735 167.51 80.1824 167.48C77.6269 167.468 74.9617 167.096 72.4127 166.989C67.5087 166.789 62.3364 167.845 57.5099 166.718C56.1692 166.405 55.3648 164.379 55.3357 163.119C55.2872 161.052 55.9334 158.942 56.2823 156.949C56.9413 153.214 55.9657 151.586 55.5295 148.11C55.0256 144.091 55.032 139.035 55.284 134.993C55.3486 133.93 55.6265 132.722 55.6329 131.824C55.6426 130.487 55.2259 128.581 55.2775 127.262C55.3002 126.717 55.8138 126.206 55.7912 125.683C55.7169 124.032 55.1742 121.98 55.0773 120.213C54.9319 117.487 55.2872 114.489 55.2614 111.772C55.2356 108.774 54.1759 105.711 54.3859 102.613C54.5571 100.116 54.7865 98.6942 54.5507 96.1291C54.3277 93.7029 54.4893 91.6353 53.9788 89.2931C53.5427 87.2966 54.1856 86.2401 54.1275 84.4762C54.0015 80.5446 54.3277 77.7081 55.0126 73.8443C55.4585 71.3309 55.0579 70.8883 54.9319 68.6268C54.7607 65.4964 55.6523 61.975 55.4391 58.7928C55.1742 54.816 55.1677 52.4253 55.5457 48.4743C55.6652 47.2369 55.9818 45.8478 56.8702 44.9077C57.119 44.646 57.3645 44.6783 57.4905 44.5652C57.7037 44.3778 57.7522 43.9999 58.085 43.8383C58.8086 43.4862 60.1687 43.3828 60.9021 43.134C63.6933 42.1875 65.5832 40.6885 68.746 40.065C70.3225 39.7516 72.0671 39.9616 73.6598 39.8711C75.2524 39.7807 77.4137 39.3252 78.903 39.3962C79.6784 39.4318 80.5442 39.8937 81.2259 39.8776C81.9883 39.8614 82.7733 39.2153 83.3516 39.2476C83.749 39.2702 84.3757 39.7516 84.7989 39.8291C86.2947 40.1102 87.0539 39.771 88.2815 39.6805C89.7514 39.5739 90.9565 39.7225 92.6848 39.519C94.2355 39.3381 95.8573 39.309 97.3143 39.0409C98.4353 38.8341 100.306 38.6209 101.424 38.7372C102.38 38.8373 102.797 39.3058 103.905 38.9795C104.057 38.9342 104.044 38.6467 104.115 38.6532C104.667 38.6952 106.505 38.8018 106.906 38.8826C107.362 38.9762 108.059 39.4511 108.544 39.5158C109.859 39.6837 112.14 39.5545 113.632 39.6934C115.296 39.8485 117.047 39.8937 118.695 40.0747C119.273 40.1393 120.349 40.6626 120.862 40.7402C121.479 40.8338 122.426 40.6109 122.927 40.7466C123.075 40.7886 123.156 41.1052 123.337 41.2474C124.119 41.845 125.269 41.3443 126.312 41.4509C128.215 41.6512 128.163 41.8386 130.183 41.6221C132.893 41.3314 135.969 42.4039 138.702 42.5816C145.283 43.0113 152.135 41.9484 158.544 40.934C159.381 40.8015 161.468 40.2879 162.02 40.2685C162.573 40.2491 163.642 40.7175 164.165 40.7208C165.328 40.7305 166.918 40.1263 168.039 40.0391C169.418 39.9357 171.147 40.0294 172.523 39.9874C173.499 39.9584 174.429 39.8453 175.35 39.7581C176.157 39.6837 176.791 40.388 176.991 40.3686C177.921 40.2782 179.731 39.7419 180.729 39.6999C181.333 39.6741 182.183 40.0843 182.816 40.0391C183.355 40.0003 184.189 39.5254 184.799 39.5222C185.135 39.5222 186.247 39.981 186.534 39.9842C186.786 39.9842 186.993 39.6288 187.232 39.5965C187.765 39.519 188.66 39.9487 189.199 39.9842C189.894 40.0294 193.835 40.3751 194.081 40.3493C194.553 40.2976 194.824 39.8647 195.654 39.9422C196.866 40.0553 199.731 40.8532 200.675 40.7208C202.183 40.5076 202.096 40.724 203.434 40.7595C204.69 40.7919 206.706 40.4333 207.85 40.556C208.186 40.5916 208.092 40.9146 208.179 40.9082C209.633 40.7854 211.119 40.8791 212.518 40.8371C213.1 40.8209 213.73 41.312 214.166 41.2797C214.508 41.2571 214.779 40.9243 215.229 40.9211C216.676 40.9049 218.546 41.5995 219.816 41.5414C221.58 41.4606 222.401 41.3798 224.206 41.4574C228.044 41.6221 231.882 41.7126 235.653 41.9C236.819 41.9581 236.648 41.7384 237.827 42.1358C239.852 42.8174 240.169 42.0518 242.001 41.9807C245.829 41.8353 249.861 42.223 253.792 42.1552C256.432 42.1099 259.753 42.3167 262.354 41.8741C264.696 41.4767 266.424 40.9502 268.915 40.7272C269.332 40.6885 269.765 40.4268 270.165 40.4268C270.779 40.4268 274.161 42.1196 274.43 42.5558C274.53 42.7173 274.465 43.0145 274.578 43.1922C275.127 44.0483 275.489 44.2195 275.544 45.4052C275.796 50.7906 275.625 56.2213 275.702 61.5938C275.803 68.3361 276.029 75.0234 276.019 81.6721C276.019 82.8254 275.728 84.2016 275.87 85.3711C275.912 85.7071 276.219 85.6102 276.216 85.6974C276.184 86.4178 275.964 87.1189 275.98 87.9944C276.093 94.0421 276.5 100.393 276.407 106.477C276.397 107.071 276.536 107.714 276.517 108.063C276.497 108.412 276.055 108.609 276.055 108.935C276.055 109 276.494 109.035 276.494 109.995C276.494 115.765 275.728 121.525 276.4 127.427C276.733 130.348 277.399 133.317 277.712 136.173C277.97 138.518 277.935 140.56 277.909 142.902C277.896 143.965 278.064 144.12 278.174 145.095V146.152C277.961 146.527 277.854 147.224 277.828 147.651C277.735 149.114 278.142 151.024 277.987 152.371C277.919 152.965 277.55 153.398 277.479 153.815C277.26 155.094 277.331 156.445 277.033 157.582C276.597 159.252 276.462 161.394 275.757 162.996C275.702 163.119 274.678 164.179 274.539 164.25C273.732 164.667 272.798 164.221 272.724 164.276C272.672 164.314 272.514 165.083 272.314 165.28C272.255 165.339 271.399 165.817 271.247 165.888C267.891 167.464 265.526 166.922 262.06 166.928C260.27 166.928 258.112 166.964 256.251 167.093C254.316 167.225 252.623 167.277 250.607 167.274C247.06 167.267 244.831 167.371 241.283 168.133C240.986 168.198 240.67 168.191 240.492 168.498C240.434 168.498 240.376 168.498 240.314 168.498L240.334 168.521ZM233.068 47.1497C232.69 46.9397 227.938 47.2175 226.888 47.0366C226.045 46.8913 225.421 46.6942 224.397 46.7297C218.74 46.9171 213.468 48.0737 207.944 48.2546C206.651 48.2966 205.611 47.9024 204.677 47.8734C202.962 47.8152 200.009 48.555 198.158 48.681C197.195 48.7456 195.838 48.4678 195.179 48.5066C194.591 48.5421 193.312 49.1559 192.314 49.1527C189.054 49.143 185.801 48.7101 182.661 48.7618C180.8 48.7941 177.873 49.2108 176.138 48.9653C175.935 48.9362 175.799 48.5356 175.437 48.4969C175.014 48.4516 173.967 48.9427 172.82 48.8393C171.399 48.7101 169.809 48.765 168.249 48.6616C165.884 48.5066 162.902 48.1609 160.463 48.1738C159.943 48.1738 159.297 48.513 158.887 48.4872C158.531 48.4646 158.299 48.0381 158.018 48.0381C157.152 48.0317 156.528 48.1383 155.475 48.0543C147.208 47.3888 139.022 46.4551 130.716 46.9268C130.102 46.9623 129.058 47.1077 128.606 47.1045C128.125 47.1012 127.818 46.7297 127.214 46.7394C126.48 46.7523 125.673 47.1885 125.081 47.266C119.696 47.9638 113.277 46.8977 107.827 47.0915C104.871 47.1982 101.944 47.5858 99.033 47.7054C98.487 47.728 97.3272 47.4372 96.9428 47.4986C96.6327 47.5503 96.119 48.1189 95.4922 48.1447C95.0044 48.1641 94.6006 47.8023 94.1031 47.7991C92.6719 47.7894 91.202 48.1932 89.577 48.1027C86.8762 47.9509 84.4759 48.5066 81.7944 48.3256C79.6784 48.1835 77.5203 48.1512 75.4398 48.009C72.8973 48.681 69.9381 47.1465 67.6928 47.0948C65.8449 47.0528 63.283 48.1318 61.1476 48.1447C60.6371 48.148 60.285 47.812 59.8521 47.6278C59.8553 48.6842 59.9426 49.6147 59.8069 50.6646C59.0832 56.2503 60.2753 61.9621 59.9619 67.5704C59.6486 73.1788 59.6098 77.9988 59.8553 83.7816C60.1073 89.7518 59.7487 95.8674 60.6888 101.605C60.9828 103.408 60.7599 105.11 60.8891 106.845C60.915 107.178 61.238 107.078 61.2639 107.223C61.4125 108.034 61.0377 109.814 61.1379 110.505C61.1702 110.719 61.4868 111 61.5385 111.313C62.0457 114.295 61.5934 116.899 61.6483 119.861C61.6903 122.236 62.2298 124.394 62.3268 126.717C62.5109 131.191 62.1071 135.843 62.4592 140.137C62.666 142.666 62.2072 145.525 62.078 148.045C62.0037 149.489 61.4739 149.786 61.3059 150.697C61.1702 151.431 61.3446 152.216 61.2606 152.943C61.0022 155.217 60.1945 158.118 60.3852 160.334C60.4142 160.657 60.5338 160.968 60.5725 161.291C62.5432 161.139 64.5462 160.816 66.4555 161.32C73.1041 161.155 79.9207 161.19 86.5402 160.615C89.493 160.36 92.4426 160.506 95.363 160.535C95.7281 160.538 96.0996 160.38 96.4744 160.425C96.329 159.659 96.6262 158.742 96.6165 158.053C96.5713 154.584 95.6925 151.121 95.5892 147.486C95.4826 143.69 95.4147 140.221 94.8526 136.447C94.2582 132.457 94.985 132.183 95.9058 128.623C96.1707 127.592 96.2256 124.701 97.1431 124.184C97.954 123.725 99.9763 123.509 100.958 123.473C106.838 123.247 112.867 124.542 118.743 124.19C121.802 124.006 124.842 123.027 127.721 122.782C128.267 122.736 128.81 122.481 129.404 122.601C129.63 118.856 129.669 115.115 128.874 111.429C129.776 104.713 127.65 95.9675 129.934 89.4772C130.011 89.2575 130.367 89.2414 130.541 88.9894C131.617 87.4387 131.119 85.6716 131.911 83.843C132.166 83.2518 133.349 81.9176 133.885 81.5945C135.468 80.6479 138.272 81.2392 140.046 81.2392C144.068 81.2392 148.604 81.433 152.542 80.8935C154.199 80.6673 155.701 80.7449 157.142 80.5543C157.717 80.4767 158.476 79.9792 159.122 79.8823C159.769 79.7854 160.647 80.0374 161.319 79.9501C165.125 79.4462 166.692 79.4235 170.478 79.6206C171.774 79.6885 173.915 78.9842 175.447 79.0617C176.274 79.1037 176.91 79.6238 177.372 79.6432C177.883 79.6626 178.836 79.2297 179.291 79.3105C179.427 79.3331 179.327 79.6368 179.659 79.682C182.092 80.0083 185.148 79.0714 187.549 79.1845C189.167 79.2588 193.18 80.5446 194.055 82.008C194.126 82.1276 194.504 83.0483 194.511 83.1291C194.533 83.4263 194.22 83.6686 194.2 83.9852C194.104 85.4163 194.378 87.3902 194.385 88.9054C194.404 94.756 193.868 101.14 194.704 106.874C194.96 108.628 195.46 109.856 195.748 111.426C196 112.789 195.712 117.241 195.609 118.808C195.567 119.441 195.137 121.851 195.645 122.216C196.239 122.643 197.421 122.249 197.99 122.245C198.481 122.245 199.36 122.478 199.851 122.329C200.251 122.21 200.516 121.716 200.862 121.638C201.395 121.518 204.067 121.399 204.842 121.36C206.758 121.27 207.95 121.693 209.824 121.212C211.029 120.901 214.45 121.476 215.943 121.544C217.306 121.606 217.923 121.861 218.928 121.993C219.793 122.11 221.603 122.094 222.455 121.987C223.056 121.913 224.365 121.541 224.914 121.525C226.003 121.496 227.515 122.358 228.645 122.41C229.308 122.439 229.857 122.116 230.509 122.291C231.117 122.452 233.029 124.093 233.401 124.681C235.029 127.25 235.061 129.866 235.255 132.719C235.575 137.403 235.759 141.923 235.821 146.565C235.866 149.877 235.882 153.253 235.649 156.593C235.53 158.305 235.371 159.049 235.404 160.871C235.42 161.727 235.11 162.415 235.394 163.252C237.148 162.98 238.628 162.289 240.431 162.04C242.485 161.759 244.485 161.536 246.53 161.097C247.195 160.955 247.851 160.509 248.504 160.428C251.092 160.108 253.805 160.632 256.345 160.176C259.43 159.62 264.586 159.355 267.691 159.74C268.149 159.798 268.621 160.273 269.183 160.066C269.125 159.546 269.593 158.787 269.635 158.409C269.71 157.718 269.277 157.22 269.196 156.651C269.038 155.501 269.587 154.329 269.558 153.485C269.538 152.917 269.044 152.209 269.022 151.886C269.015 151.805 269.374 151.818 269.38 151.709C269.39 151.566 269.199 151.266 269.193 151.014C269.057 146.013 268.931 142.501 269.564 137.481C269.664 136.683 270.123 135.391 270.168 134.654C270.21 133.979 269.868 132.932 269.884 132.183C269.926 130.257 270.068 130.254 269.765 128.27C269.341 125.499 269.842 121.405 269.723 118.456C269.571 114.741 268.85 111.054 269.548 107.362C269.564 107.278 269.206 107.291 269.209 107.207C269.345 102.348 269.106 97.4956 269.458 92.5851C269.69 89.3254 269.19 85.7297 269.913 82.3763C269.619 74.5259 269.832 66.9889 270.059 59.1482C270.113 57.2841 270.424 55.6365 270.579 53.8468C270.701 52.4318 270.304 50.8229 270.779 49.3853C270.327 49.3142 269.923 49.2205 269.454 49.2011C268.773 49.1721 267.603 49.5565 267.193 49.5113C266.941 49.4854 266.689 49.2141 266.288 49.1947C265.746 49.1688 265.158 49.5048 264.589 49.4628C263.746 49.3982 262.221 48.6681 261.362 48.6649C257.808 48.6519 254.151 49.0881 250.607 49.1139C248.924 49.1268 247.005 48.891 245.202 48.8167C243.4 48.7424 234.024 47.6924 233.055 47.1497H233.068Z"></path>
<path fill="#BCD1CA" d="M197.191 163.242L197.734 163.671C197.55 164.511 197.886 165.367 197.902 166.14C197.944 168.143 197.86 170.129 197.909 172.129C198.093 179.757 198.193 187.649 197.828 195.328C197.75 196.973 197.149 199.237 197.443 200.736C197.605 201.56 197.96 202.177 198.875 202.145C199.23 202.132 199.411 201.873 199.572 201.857C200.865 201.725 203.982 202.507 205.387 202.322C207.988 201.983 209.397 201.305 212.259 201.26C217.483 201.172 222.639 201.311 227.873 201.033C229.355 200.956 229.763 201.111 231.123 201.224C231.51 201.256 231.908 200.975 232.286 201.105C232.344 201.124 233.168 201.902 233.197 201.957C233.226 202.009 233.219 203.059 233.213 203.117C233.18 203.314 232.861 203.437 232.793 203.673C232.473 204.758 233.381 207.792 233.416 209.142C233.439 210.015 233.051 211.417 233.113 212.257C233.135 212.56 233.394 213.135 233.474 213.817C234.208 219.923 233.649 225.971 233.911 232.086C233.975 233.614 233.804 233.64 233.649 234.978C233.549 235.85 233.184 239.4 233.416 239.933C233.529 240.192 233.798 240.392 233.985 240.596C232.909 241.003 233.652 241.988 234.437 242.266C234.557 242.308 236.408 242.557 236.566 242.557C237.167 242.566 237.952 242.253 238.485 242.259C238.95 242.266 239.238 242.618 239.703 242.621C240.33 242.628 241.515 242.085 241.822 242.095C242.229 242.107 243.564 242.767 244.297 242.799C249.967 243.061 255.743 242.844 261.368 242.805C263.949 242.789 267.247 242.343 269.67 242.527C270.901 242.621 270.303 242.605 270.775 243.235C271.247 243.865 271.796 243.313 272.371 243.671C272.368 243.729 272.371 243.787 272.371 243.846C271.977 251.615 271.389 259.362 271.237 267.164C271.137 272.259 270.972 277.257 270.688 282.3C270.507 285.488 270.229 288.69 270.255 291.888C270.048 291.804 269.884 291.727 269.644 291.707C269.073 291.662 267.393 291.649 266.84 291.714C266.288 291.778 265.512 292.437 265.015 292.547C264.605 292.638 263.471 292.424 262.989 292.453C256.716 292.844 250.193 292.709 243.935 292.667C242.136 292.654 239.945 292.974 238.169 292.899C236.172 292.815 234.482 292.944 232.499 292.938C227.953 292.925 223.514 292.702 219.082 292.776C216.301 292.825 213.58 292.964 210.828 292.983C206.832 293.009 203 293.09 199.046 293.112C192.055 293.154 185.041 292.967 178.086 292.941C173.643 292.925 169.289 293.083 164.876 293.154C157.461 293.271 150.554 293.423 143.214 293.3C140.232 293.248 137.26 292.948 134.414 293.287C131.92 293.584 128.35 293.436 125.62 293.465C114.504 293.578 103.326 293.636 92.1544 293.655C85.6254 293.665 79.0511 293.83 72.438 293.516C69.4367 293.374 66.5873 293.371 63.6184 293.452C62.9723 293.468 60.0938 293.041 59.7191 292.728C59.438 292.492 59.4574 291.148 59.4994 290.744C59.7255 288.59 60.0292 287.607 60.0195 285.301C59.9872 277.528 60.0938 269.619 59.9646 261.918C59.9 258.18 60.2844 254.167 60.3813 250.449C60.4362 248.456 60.5945 246.233 60.5719 244.285C60.5687 243.926 60.5493 243.645 60.3813 243.322C62.6525 242.789 64.8493 243.8 67.1075 243.636C69.6467 243.451 72.3185 243.271 74.9191 243.141C77.5714 243.012 79.1932 243.503 81.6129 243.833C84.0327 244.162 88.5491 243.258 91.14 243.044C92.8296 242.905 94.2705 243.203 95.8599 243.319C96.7548 243.384 98.0245 242.996 98.8515 243.006C99.2973 243.012 99.7981 243.29 100.234 243.261C102.018 243.145 101.795 239.387 101.943 238.144C102.221 235.834 102.518 234.238 102.463 231.789C102.386 228.316 102.169 224.61 101.937 221.228C101.675 217.39 102.169 213.636 102.286 209.805C102.373 206.942 102.244 204.051 102.124 201.205C102.819 200.252 103.494 200.869 104.308 200.907C107.251 201.046 110.029 200.607 112.934 200.594C114.123 200.588 115.085 200.458 116.129 200.442C117.172 200.426 118.872 200.688 120.164 200.727C122.031 200.781 125.175 200.875 126.955 200.633C127.472 200.562 128.037 200.21 128.605 200.203C129.904 200.19 131.442 200.743 132.692 200.833C133.241 200.872 133.787 200.639 134.236 200.649C136.097 200.691 136.34 201.922 137.264 199.531C138.856 195.419 138.158 189.08 138.194 184.622C138.236 179.366 138.123 174.038 138.449 168.824C138.485 168.243 138.717 167.555 138.733 167.022C138.753 166.421 138.326 164.059 138.753 163.801C140.61 163.529 142.442 164.014 144.306 164.062C147.343 164.14 150.383 163.794 153.439 163.784C159.577 163.768 165.706 163.885 171.763 163.933C179.888 163.998 188.142 163.465 196.303 163.248H197.185L197.191 163.242Z"></path>
</svg>
